# xmcd
#
# Track frame offsets:
#	182
#	21045
#	39972
#	56520
#	76327
#	95887
#	129802
#	142857
#	161940
#	179675
#	197695
#	213925
#	226572
#	252720
#	267025
#	300310
#	318530
#	332330
#
# Disc length: 4694 seconds
#
# Revision: 2
# Processed by: cddbd v1.4PL0 Copyright (c) Steve Scherf et al.
# Submitted via: EasyCDDAExtractor 4.6.0.1
#
DISCID=eb125412
DTITLE=Various Artist - Canto E Encanto Nativo - Vol 3
DYEAR=1900
DGENRE=Blues
TTITLE0=Grupo quero-quero - entrando no bororó 
TTITLE1=Grupo candeeiro - lamento de um velho pescador
TTITLE2=Os mateadores - velho tata
TTITLE3=Luis marenco - estrelas de chão
TTITLE4=Iedo silva - lida campeira
TTITLE5=Jayme caetano braun - bochincho
TTITLE6=Os tiranos - nos tempos de rodeio
TTITLE7=Pedro ortaça - guasca
TTITLE8=João chagas leite - alerta de sangue
TTITLE9=Leonardo - liberdade pra morrer
TTITLE10=Nelcy vargas - hino ao rio grande
TTITLE11=Cesar passarinho - cambichos
TTITLE12=Grupo minuano - te amo guri
TTITLE13=Iedo silva - xote laranjeira
TTITLE14=Grupo quero-quero - pout-porry, os homens de preto - chimarrita - a x
TTITLE14=ula - o tatu
TTITLE15=Nelcy vargas - um tema para upavara 
TTITLE16=Grupo liberdade - janaína
TTITLE17=Wilson paim - testamento de peão
EXTD=
EXTT0=Grupo Quero-Quero\nJos  J. Sampaio - Elton Saldanha\n
EXTT1=Grupo Candeeiro\nGen s Nogueira - C. Lagoa Incrusive\n
EXTT2=Os Mateadores\nV. Villa Menezes - Enecir Doeneles\n
EXTT3=Luis Marenco\nS rgio C. Pereira - Luis Marenco\n
EXTT4=Iedo Silva\nIedo Silva - Nei Fernandes\n
EXTT5=Jayme Caetano Braun\n
EXTT6=Os Tiranos\nAngelo Marques - L o R. De Souza\n
EXTT7=Pedro Orta a\nVaine Darde - Pedro Orta a\n
EXTT8=Jo o Chagas Leite\nVaine Darde - J. Chagas Leite\n
EXTT9=Leonardo - Edison Dutra\n
EXTT10=Nelcy Vargas\nSim o Goldman\n
EXTT11=Cesar Passarinho\nLuis Bastos - Jorge Rodriguez\n
EXTT12=Grupo Minuano\nCid Ramos\n
EXTT13=Iedo Silva\nFolclore Ga cho Recolhido Por P. Cortes - B. Lessa\n
EXTT14=Os Homens De Preto - Chimarrita - A Chula - O Tatu\nGrupo Quero-Quero\n
EXTT14=P. Ruschel - O Chaves - D. Mello - Folc. Ga cho - Folc. Ga cho\n
EXTT15=Nelcy Vargas\n(Can  o Instrumental) Nelcy Vargas\n
EXTT16=Grupo Liberdade\nMiguel A. Bica\n
EXTT17=Wilsom Paim\nWilsom Paim - L o Alves - Romi S. Renner\n
PLAYORDER=
